<svg width="12" height="13" viewBox="0 0 12 13" fill="none" xmlns="http://www.w3.org/2000/svg">
<path d="M6 0.320312C2.69391 0.320312 0 3.01422 0 6.32031C0 9.62638 2.69391 12.3203 6 12.3203C9.30611 12.3203 12 9.62638 12 6.32031C12 3.01422 9.30609 0.320312 6 0.320312ZM6 1.60603C8.61124 1.60603 10.7143 3.70909 10.7143 6.32031C10.7143 8.93151 8.61124 11.0346 6 11.0346C3.38878 11.0346 1.28571 8.93151 1.28571 6.32031C1.28571 3.70909 3.38876 1.60603 6 1.60603ZM6 2.46317C5.64497 2.46317 5.35714 2.751 5.35714 3.10603V6.32031C5.35714 6.55806 5.4867 6.76489 5.67857 6.8761L8.08929 8.26896C8.39674 8.44647 8.78897 8.34208 8.96651 8.0346C9.14402 7.72714 9.0396 7.33487 8.73214 7.15735L6.64286 5.952V3.10603C6.64286 2.751 6.35505 2.46317 6 2.46317Z" fill="#3E83FF"/>
</svg>
