<svg width="12" height="10" viewBox="0 0 12 10" fill="none" xmlns="http://www.w3.org/2000/svg">
    <path d="M11.1435 1.02952L11.1348 1.02079L11.1319 1.0237C10.9395 0.933171 10.7266 0.878906 10.5 0.878906H1.50008C1.29494 0.878906 1.10025 0.920597 0.921967 0.995377L0.90635 0.980289L0.859894 1.0282C0.353513 1.26935 0 1.78182 0 2.37899V8.37895C0.000132352 9.20602 0.67288 9.87891 1.50008 9.87891H10.5C11.3273 9.87891 12 9.20602 12 8.37895V2.37886C12 1.78301 11.6479 1.27147 11.1435 1.02952ZM8.38387 5.09885L11.0001 2.54907V7.64624L8.38387 5.09885ZM10.2544 1.87897L6.42187 5.61423C6.2158 5.81607 5.86573 5.81567 5.65873 5.6137L1.82818 1.87897H10.2544ZM1.00006 7.73148V2.4682L3.66947 5.07105L1.00006 7.73148ZM1.50008 8.87885C1.43126 8.87885 1.36535 8.86469 1.30526 8.83927L4.38576 5.76935L4.95991 6.32933C5.25823 6.62038 5.64933 6.76583 6.04043 6.76583C6.43154 6.76583 6.82264 6.62038 7.12056 6.33013L7.66797 5.79661L10.7524 8.80023C10.6773 8.84563 10.5943 8.87885 10.5 8.87885H1.50008Z" fill="#3E83FF"/>
</svg>
