<svg width="28" height="25" viewBox="0 0 28 25" fill="none" xmlns="http://www.w3.org/2000/svg">
<path d="M6.04513 22.455C4.00923 20.4192 2.75 17.6066 2.75 14.5C2.75 8.2868 7.7868 3.25 14 3.25C20.2132 3.25 25.25 8.2868 25.25 14.5C25.25 17.6066 23.9908 20.4191 21.955 22.4549L23.7227 24.2227C26.211 21.7344 27.75 18.2969 27.75 14.5C27.75 6.90609 21.5939 0.75 14 0.75C6.40608 0.75 0.25 6.90609 0.25 14.5C0.25 18.297 1.78905 21.7345 4.27736 24.2228L6.04513 22.455Z" fill="#3E83FF"/>
<path d="M20.1872 20.6872C21.7706 19.1037 22.75 16.9162 22.75 14.5C22.75 9.66751 18.8325 5.75 14 5.75C9.16751 5.75 5.25 9.66751 5.25 14.5C5.25 16.9163 6.22941 19.1038 7.81289 20.6873L9.58066 18.9195C8.44959 17.7885 7.75 16.2259 7.75 14.5C7.75 11.0482 10.5482 8.25 14 8.25C17.4518 8.25 20.25 11.0482 20.25 14.5C20.25 16.2259 19.5505 17.7884 18.4194 18.9194L20.1872 20.6872Z" fill="#3E83FF"/>
<path d="M16.6517 17.1516C17.3303 16.473 17.75 15.5355 17.75 14.5C17.75 12.4289 16.0711 10.75 14 10.75C11.9289 10.75 10.25 12.4289 10.25 14.5C10.25 15.5356 10.6698 16.4731 11.3484 17.1517L13.1162 15.384C12.8899 15.1577 12.75 14.8452 12.75 14.5C12.75 13.8096 13.3096 13.25 14 13.25C14.6904 13.25 15.25 13.8096 15.25 14.5C15.25 14.8452 15.1101 15.1577 14.8839 15.3839L16.6517 17.1516Z" fill="#3E83FF"/>
</svg>
