<svg width="13" height="11" viewBox="0 0 13 11" fill="none" xmlns="http://www.w3.org/2000/svg">
<path d="M10.1782 1.70077L10.1553 1.68385C9.68118 1.18462 9.12294 0.947692 8.48059 0.981538L8.45765 0.930769L8.47294 0.922308C9.05412 0.778462 9.39823 0.626154 9.50529 0.456923C9.53588 0.321538 9.49765 0.245385 9.36765 0.228462C9.07706 0.270769 8.80176 0.338462 8.5647 0.448462C8.87059 0.228462 8.98529 0.0761539 8.91647 0C8.61823 0.00846154 8.28941 0.177692 7.95294 0.516154C8.07529 0.279231 8.12882 0.143846 8.09823 0.126923C7.93 0.245385 7.79235 0.380769 7.67 0.524615C7.41 0.846154 7.20353 1.14231 7.04294 1.41308L7.03529 1.43C6.63 2.16615 6.33941 2.90231 6.17118 3.65538L6.11 3.71462L6.09471 3.72308C5.85 3.38462 5.55176 3.09692 5.2 2.86846C4.78706 2.56385 4.29765 2.28462 3.73176 2.00538C3.12 1.65 2.49294 1.36231 1.86588 1.13385C1.85824 1.92077 2.21 2.53846 2.89059 2.99538V3.00385C2.65353 3.00385 2.41647 3.04615 2.18706 3.12231C2.23294 3.85 2.69941 4.34923 3.57882 4.62L3.57118 4.63692C3.22706 4.61154 2.94412 4.74692 2.72235 5.02615C3.01294 5.65231 3.52529 5.94846 4.26706 5.93154C4.12176 6.01615 4.00706 6.10077 3.93059 6.20231C3.79294 6.36308 3.74706 6.54923 3.79294 6.76077C3.95353 7.08231 4.23647 7.22615 4.65706 7.20077L4.68 7.23462L4.67235 7.25154C3.94588 8.08077 3.06647 8.45308 2.04176 8.37692L2.02647 8.38538C1.39941 8.37692 0.72647 8.04692 0 7.38692C0.72647 8.54615 1.69765 9.38385 2.89823 9.91692C4.26706 10.4162 5.64353 10.4585 7.01235 10.0269H7.03529C8.36588 9.60385 9.49 8.72385 10.4229 7.40385C10.8512 6.71846 11.1188 6.05846 11.2259 5.42385C11.9218 5.44923 12.4188 5.22923 12.7324 4.75538L12.7247 4.73846C12.4876 4.83154 12.0365 4.80615 11.3712 4.65385V4.56923C12.1053 4.47615 12.5412 4.21385 12.6788 3.78231C12.1665 4.00231 11.6618 4.01077 11.1647 3.79923C11.0729 3.03769 10.7441 2.33538 10.1782 1.70077Z" fill="#3E83FF"/>
</svg>
