<svg width="12" height="9" viewBox="0 0 12 9" fill="none" xmlns="http://www.w3.org/2000/svg">
<path d="M11.5323 1.29345C11.0991 0.821442 10.2994 0.628906 8.77204 0.628906H3.22785C1.66556 0.628906 0.852271 0.833861 0.420736 1.33638C0 1.82635 0 2.54826 0 3.54742V5.4518C0 7.38748 0.4992 8.37028 3.22785 8.37028H8.77208C10.0966 8.37028 10.8305 8.20038 11.3053 7.78384C11.7922 7.35668 12 6.65925 12 5.4518V3.54742C12 2.49373 11.9674 1.76755 11.5323 1.29345ZM7.70404 4.76253L5.18644 5.96866C5.13016 5.99563 5.06861 6.00901 5.00714 6.00901C4.93754 6.00901 4.86809 5.99183 4.80658 5.9577C4.69076 5.89336 4.62004 5.77829 4.62004 5.65417V3.24964C4.62004 3.12573 4.69057 3.01076 4.80615 2.94639C4.92178 2.88203 5.06559 2.87763 5.18555 2.93475L7.70315 4.13312C7.83124 4.19408 7.91168 4.31529 7.91187 4.44754C7.91203 4.57989 7.83194 4.70128 7.70404 4.76253Z" fill="#3E83FF"/>
</svg>
